<?xml version="1.0" encoding="UTF-8"?>
<svg version="1.1" xmlns="http://www.w3.org/2000/svg" width="418" height="379">
<path d="M0 0 C3.64696948 0.47330083 6.49525264 1.58346802 9.73046875 3.29296875 C10.61669922 3.75896484 11.50292969 4.22496094 12.41601562 4.70507812 C13.33060547 5.19427734 14.24519531 5.68347656 15.1875 6.1875 C16.08275391 6.65736328 16.97800781 7.12722656 17.90039062 7.61132812 C24.06219672 10.87241395 30.05036901 14.36871932 36 18 C36.92063232 18.51199951 37.84126465 19.02399902 38.78979492 19.55151367 C39.5191626 20.02951416 40.24853027 20.50751465 41 21 C41 21.66 41 22.32 41 23 C41.72058594 23.25652344 42.44117188 23.51304688 43.18359375 23.77734375 C46.16926142 25.07347964 48.45672351 26.61701077 51.0625 28.5625 C52.02414063 29.27792969 52.98578125 29.99335937 53.9765625 30.73046875 C54.97429687 31.47941406 55.97203125 32.22835937 57 33 C57.97710937 33.71800781 58.95421875 34.43601563 59.9609375 35.17578125 C65.32595272 39.1396967 70.59201863 43.20873924 75.75 47.4375 C76.75546875 48.26121094 77.7609375 49.08492187 78.796875 49.93359375 C79.52390625 50.61550781 80.2509375 51.29742187 81 52 C81 52.66 81 53.32 81 54 C81.58910156 54.27070312 82.17820312 54.54140625 82.78515625 54.8203125 C86.69743877 56.90410319 89.73770417 60.02962075 93 63 C93.77851318 63.70286133 93.77851318 63.70286133 94.57275391 64.41992188 C96.3030192 65.98338462 98.02730265 67.55320466 99.75 69.125 C100.30486084 69.62757324 100.85972168 70.13014648 101.43139648 70.64794922 C104.6134737 73.57274801 107.31411856 76.60030323 110 80 C110.66 80.33 111.32 80.66 112 81 C112 81.66 112 82.32 112 83 C112.66 83 113.32 83 114 83 C114.66 84.65 115.32 86.3 116 88 C116.66 88 117.32 88 118 88 C118 88.66 118 89.32 118 90 C118.89525391 90.36738281 118.89525391 90.36738281 119.80859375 90.7421875 C123.02798364 92.59003695 124.49961358 95.28589611 126.53515625 98.3203125 C127.01855469 98.87460938 127.50195312 99.42890625 128 100 C128.99 100 129.98 100 131 100 C133.51354822 95.5450934 134.45804898 91.94963885 134.9375 86.875 C136.45662119 73.67671879 140.28071065 63.21931319 150.8125 54.6875 C152.1840672 53.75493821 153.58078569 52.8583116 155 52 C155.680625 51.58621094 156.36125 51.17242187 157.0625 50.74609375 C167.05433747 45.76752195 180.55245937 46.68593675 191.0625 49.5625 C196.26804635 51.41453682 200.40901112 54.09900029 204.8203125 57.3828125 C213.64307048 63.92872971 223.75146902 62.55638328 234.09594727 61.27758789 C251.95167127 59.10276644 270.04454825 59.83011581 288 60 C288 60.99 288 61.98 288 63 C287.1234375 63.09796875 286.246875 63.1959375 285.34375 63.296875 C280.88944577 63.82197591 276.4441855 64.39563733 272 65 C271.08959961 65.12358887 270.17919922 65.24717773 269.24121094 65.37451172 C254.23823552 67.47737525 240.28683735 71.00018394 226 76 C224.5526549 76.48737773 223.10477696 76.97317739 221.65625 77.45703125 C216.53097397 79.20957915 212.29382041 80.67944555 208 84 C207.34 84 206.68 84 206 84 C206 84.66 206 85.32 206 86 C205.34 86 204.68 86 204 86 C203.566875 86.8971875 203.566875 86.8971875 203.125 87.8125 C202 90 202 90 200 93 C199.34 93 198.68 93 198 93 C198 94.32 198 95.64 198 97 C197.34 97 196.68 97 196 97 C196 98.32 196 99.64 196 101 C195.34 101 194.68 101 194 101 C194 103.64 194 106.28 194 109 C193.34 109 192.68 109 192 109 C192.01160156 109.85464844 192.02320313 110.70929688 192.03515625 111.58984375 C192.04417969 112.69457031 192.05320312 113.79929687 192.0625 114.9375 C192.07410156 116.03964844 192.08570313 117.14179688 192.09765625 118.27734375 C192 121 192 121 191 122 C190.79111292 123.99603206 190.63224523 125.99742941 190.5 128 C190.11111111 133.88888889 190.11111111 133.88888889 189 135 C188.76807135 136.51469448 188.58784762 138.03754562 188.4375 139.5625 C188.35371094 140.38878906 188.26992188 141.21507812 188.18359375 142.06640625 C188.12300781 142.70449219 188.06242188 143.34257812 188 144 C187.34 144 186.68 144 186 144 C186.04125 145.2375 186.0825 146.475 186.125 147.75 C186.13658291 151.01637962 185.8568702 153.2146947 184 156 C183.34 156 182.68 156 182 156 C182 157.32 182 158.64 182 160 C181.34 160 180.68 160 180 160 C179.8453125 160.804375 179.8453125 160.804375 179.6875 161.625 C178.81907303 164.62502044 177.44379704 167.2379535 176 170 C175.34 170 174.68 170 174 170 C174 170.99 174 171.98 174 173 C173.34 173 172.68 173 172 173 C172 173.99 172 174.98 172 176 C171.34 176 170.68 176 170 176 C170 176.66 170 177.32 170 178 C169.34 178 168.68 178 168 178 C167.34 179.65 166.68 181.3 166 183 C165.34 183 164.68 183 164 183 C164 183.66 164 184.32 164 185 C163.34 185 162.68 185 162 185 C162 185.66 162 186.32 162 187 C160.68 187.33 159.36 187.66 158 188 C158 188.66 158 189.32 158 190 C156.68 190.33 155.36 190.66 154 191 C154 191.66 154 192.32 154 193 C151.03 193.99 151.03 193.99 148 195 C148 195.66 148 196.32 148 197 C124.17111782 209.30885854 124.17111782 209.30885854 111.62353516 213.85571289 C107.81701521 215.23911568 104.30074115 216.6244666 101 219 C100.11341534 221.59122743 100.11341534 221.59122743 100 224 C99.34 224 98.68 224 98 224 C98 224.99 98 225.98 98 227 C97.34 227 96.68 227 96 227 C96 228.65 96 230.3 96 232 C95.34 232 94.68 232 94 232 C94 233.65 94 235.3 94 237 C93.34 237 92.68 237 92 237 C92 238.65 92 240.3 92 242 C91.34 242 90.68 242 90 242 C90 243.32 90 244.64 90 246 C89.34 246 88.68 246 88 246 C88.03867188 246.72058594 88.07734375 247.44117188 88.1171875 248.18359375 C87.99016226 251.23643371 87.3116206 253.26051633 86.125 256.0625 C85.77695313 256.89910156 85.42890625 257.73570312 85.0703125 258.59765625 C84.10426921 260.76596509 83.08282396 262.88800552 82 265 C81.34 265 80.68 265 80 265 C79.938125 265.76957031 79.87625 266.53914063 79.8125 267.33203125 C79 270 79 270 76.75 271.51171875 C75.8425 271.89972656 74.935 272.28773438 74 272.6875 C70.28039884 274.0620125 70.28039884 274.0620125 68 277 C67.34 277 66.68 277 66 277 C66 277.66 66 278.32 66 279 C65.34 279 64.68 279 64 279 C64 279.99 64 280.98 64 282 C63.34 282 62.68 282 62 282 C61.34 283.65 60.68 285.3 60 287 C59.34 287 58.68 287 58 287 C58 287.66 58 288.32 58 289 C57.34 289 56.68 289 56 289 C56 289.66 56 290.32 56 291 C55.34 291 54.68 291 54 291 C54 291.66 54 292.32 54 293 C50.572135 294.7139325 46.71683807 294.01163318 42.9453125 293.9375 C40.40999714 293.9912998 38.40596654 294.25612629 36 295 C36 295.66 36 296.32 36 297 C35.34 297 34.68 297 34 297 C34 297.66 34 298.32 34 299 C32.68 299.33 31.36 299.66 30 300 C30 300.66 30 301.32 30 302 C25.85172726 304.76551516 23.11717204 305.11512979 18.125 304.875 C12.08449945 304.69468655 8.57383529 306.12983168 4 310 C3.34 310.66 2.68 311.32 2 312 C-3.48571429 313.25714286 -3.48571429 313.25714286 -6 312 C-5.32764463 308.24377466 -3.63756862 305.44039818 -1.6875 302.1875 C-0.74777344 300.60775391 -0.74777344 300.60775391 0.2109375 298.99609375 C0.80132812 298.00738281 1.39171875 297.01867187 2 296 C3.34431696 293.67269983 4.67226587 291.33681206 6 289 C6.66 289 7.32 289 8 289 C8.2475 288.28070313 8.495 287.56140625 8.75 286.8203125 C10.13120887 283.70395999 11.82363994 281.49143287 14 278.875 C16.13736093 276.28973622 18.13758894 273.79361659 20 271 C20.66 271 21.32 271 22 271 C22.66 269.35 23.32 267.7 24 266 C24.66 266 25.32 266 26 266 C26.28875 265.401875 26.5775 264.80375 26.875 264.1875 C28 262 28 262 30 259 C30.66 259 31.32 259 32 259 C32 258.34 32 257.68 32 257 C32.66 257 33.32 257 34 257 C34 256.34 34 255.68 34 255 C34.66 255 35.32 255 36 255 C36 254.34 36 253.68 36 253 C36.66 253 37.32 253 38 253 C38.28875 252.401875 38.5775 251.80375 38.875 251.1875 C40 249 40 249 42 246 C42.66 246 43.32 246 44 246 C44.309375 244.9790625 44.309375 244.9790625 44.625 243.9375 C46.42895027 240.08360625 48.9010345 236.92212236 52 234 C52.66 234 53.32 234 54 234 C54.2475 233.29875 54.495 232.5975 54.75 231.875 C56.17180238 228.60485452 57.87246288 225.858878 60 223 C60.66 223 61.32 223 62 223 C62.26167969 221.98550781 62.52335937 220.97101563 62.79296875 219.92578125 C63.88572493 216.10833011 65.49102233 212.72140901 67.3125 209.1875 C67.941638 207.96105636 68.57054291 206.73449311 69.19921875 205.5078125 C69.79347656 204.35023438 70.38773437 203.19265625 71 202 C71.87644148 200.1881966 72.75162863 198.37578533 73.625 196.5625 C75.71857989 192.36156667 78.19745167 188.76131487 81 185 C82.0064275 183.33720673 83.00585407 181.67016516 84 180 C85.00898334 178.38835364 86.03088705 176.7847558 87.0625 175.1875 C87.56910156 174.39730469 88.07570313 173.60710937 88.59765625 172.79296875 C89.06042969 172.20128906 89.52320313 171.60960937 90 171 C90.66 171 91.32 171 92 171 C92.33 170.01 92.66 169.02 93 168 C94.671875 166.31640625 94.671875 166.31640625 96.75 164.5625 C97.471875 163.95019531 98.19375 163.33789062 98.9375 162.70703125 C102.55961267 159.70918421 106.23526144 156.81564481 110 154 C109.00742188 154.02320313 108.01484375 154.04640625 106.9921875 154.0703125 C83.21881531 154.45603355 83.21881531 154.45603355 74 149 C72.75 146.4375 72.75 146.4375 72 144 C69.81113471 141.81113471 68.4441625 141.33145586 65.5625 140.3125 C58.87370874 137.73239857 52.10389302 134.10389302 47 129 C47 128.01 47 127.02 47 126 C50.63 125.67 54.26 125.34 58 125 C58 124.34 58 123.68 58 123 C57.32195312 122.92523438 56.64390625 122.85046875 55.9453125 122.7734375 C41.96336813 120.79814896 28.8099982 110.90012533 20 100 C19.28125 97.76171875 19.28125 97.76171875 19 96 C20.98 95.01 22.96 94.02 25 93 C24.50371094 92.64808594 24.00742188 92.29617187 23.49609375 91.93359375 C14.7819829 85.60056821 5.43266478 77.59282444 2 67 C2.39453125 64.75390625 2.39453125 64.75390625 3 63 C7.34464536 63.60825035 11.67551867 64.26167392 16 65 C15.505 63.515 15.505 63.515 15 62 C14.34 61.67 13.68 61.34 13 61 C11 60 11 60 10 57 C9.34 57 8.68 57 8 57 C6.27979013 54.53056981 4.68637253 52.06738806 3.125 49.5 C2.69058594 48.80390625 2.25617188 48.1078125 1.80859375 47.390625 C-0.35126238 43.8881556 -2.42913642 40.34052612 -4.3828125 36.71875 C-4.71941895 36.09935547 -5.05602539 35.47996094 -5.40283203 34.84179688 C-6.14610795 32.54937107 -5.7644847 31.2481191 -5 29 C0.66828055 29.59468016 5.60322154 31.09242801 10.9375 33.0625 C12.10635742 33.48499023 12.10635742 33.48499023 13.29882812 33.91601562 C15.20140125 34.60467706 17.10101725 35.30149903 19 36 C19 35.34 19 34.68 19 34 C17.515 33.505 17.515 33.505 16 33 C14.5 31.328125 14.5 31.328125 13 29.25 C12.505 28.57453125 12.01 27.8990625 11.5 27.203125 C8.28990048 22.48829134 5.76995746 17.59782147 3.375 12.4375 C3.06304687 11.77814453 2.75109375 11.11878906 2.4296875 10.43945312 C-0.57515714 3.99587464 -0.57515714 3.99587464 -1 1 C-0.67 0.67 -0.34 0.34 0 0 Z " fill="#074FCF" transform="translate(119,63)"/>
<path d="M0 0 C0 0.33 0 0.66 0 1 C-0.70157227 1.08451416 -1.40314453 1.16902832 -2.12597656 1.25610352 C-15.93114353 2.96330225 -29.43479308 5.06366037 -42.9375 8.4375 C-44.05350586 8.71343994 -45.16951172 8.98937988 -46.31933594 9.27368164 C-63.02344114 13.6018355 -80.00389843 19.04374986 -89.4609375 34.3671875 C-94.26411898 44.1773218 -95.01343551 55.41166728 -96.56787109 66.09082031 C-99.58914913 86.43067853 -105.83311846 102.21044694 -119 118 C-119.46921875 118.61617188 -119.9384375 119.23234375 -120.421875 119.8671875 C-127.15076533 128.45641809 -136.64761688 134.04250433 -146.125 139.125 C-146.87177002 139.5276709 -147.61854004 139.9303418 -148.38793945 140.34521484 C-150.22477083 141.29842942 -152.1094486 142.15834513 -154 143 C-154.66 142.67 -155.32 142.34 -156 142 C-155.21625 141.236875 -154.4325 140.47375 -153.625 139.6875 C-150.92742283 137.09108195 -150.92742283 137.09108195 -149 134 C-148.01 134 -147.02 134 -146 134 C-145.855625 133.38125 -145.71125 132.7625 -145.5625 132.125 C-145 130 -145 130 -144 128 C-143.34 128 -142.68 128 -142 128 C-141.773125 127.360625 -141.54625 126.72125 -141.3125 126.0625 C-140.22550449 123.52617714 -139.0510423 121.26334296 -137.6875 118.875 C-136.78885423 117.25155362 -135.89316263 115.62646945 -135 114 C-134.525625 113.16339844 -134.05125 112.32679688 -133.5625 111.46484375 C-127.11926004 99.0359803 -129.69365447 85.39332277 -133.625 72.5 C-133.88539063 71.7059375 -134.14578125 70.911875 -134.4140625 70.09375 C-135 68 -135 68 -135 65 C-135.99 65 -136.98 65 -138 65 C-138 64.01 -138 63.02 -138 62 C-138.66 62 -139.32 62 -140 62 C-142.34138209 58.34159049 -142 55.24278004 -142 51 C-142.66 50.34 -143.32 49.68 -144 49 C-143.67 48.34 -143.34 47.68 -143 47 C-143.99 46.67 -144.98 46.34 -146 46 C-145.360625 45.71125 -144.72125 45.4225 -144.0625 45.125 C-141.84793921 44.17176549 -141.84793921 44.17176549 -141 42 C-140.34 42 -139.68 42 -139 42 C-139.2475 41.443125 -139.495 40.88625 -139.75 40.3125 C-140 38 -140 38 -138.0625 35.375 C-137.381875 34.59125 -136.70125 33.8075 -136 33 C-136 32.34 -136 31.68 -136 31 C-129.25 27 -129.25 27 -127 27 C-126.938125 26.21625 -126.87625 25.4325 -126.8125 24.625 C-126.544375 23.75875 -126.27625 22.8925 -126 22 C-123.5 20.75 -123.5 20.75 -121 20 C-120.505 19.505 -120.505 19.505 -120 19 C-117 18.875 -117 18.875 -114 19 C-113.67 19.33 -113.34 19.66 -113 20 C-112.505 18.515 -112.505 18.515 -112 17 C-111.01 16.67 -110.02 16.34 -109 16 C-108.67 15.34 -108.34 14.68 -108 14 C-107.01 14.33 -106.02 14.66 -105 15 C-98.86248258 14.42189789 -93.30703679 13.15553539 -88 10 C-88 9.01 -88 8.02 -88 7 C-85.35261084 5.5393715 -84.10551666 5 -81 5 C-80.67 4.01 -80.34 3.02 -80 2 C-79.01 2.66 -78.02 3.32 -77 4 C-76.01 3.34 -75.02 2.68 -74 2 C-71.32345664 1.90515018 -68.73353507 1.91363596 -66.0625 2 C-59.64647525 2.11280923 -53.48723678 1.80317888 -47.125 1 C-31.53999549 -0.88761974 -15.66975501 -0.16648154 0 0 Z " fill="#6E47FB" transform="translate(403,123)"/>
<path d="M0 0 C0 0.99 0 1.98 0 3 C-0.8765625 3.09796875 -1.753125 3.1959375 -2.65625 3.296875 C-7.11055423 3.82197591 -11.5558145 4.39563733 -16 5 C-17.36560059 5.1853833 -17.36560059 5.1853833 -18.75878906 5.37451172 C-33.76176448 7.47737525 -47.71316265 11.00018394 -62 16 C-63.4473451 16.48737773 -64.89522304 16.97317739 -66.34375 17.45703125 C-71.46902603 19.20957915 -75.70617959 20.67944555 -80 24 C-80.66 24 -81.32 24 -82 24 C-82 24.66 -82 25.32 -82 26 C-82.66 26 -83.32 26 -84 26 C-84.28875 26.598125 -84.5775 27.19625 -84.875 27.8125 C-86 30 -86 30 -88 33 C-88.66 33 -89.32 33 -90 33 C-90 34.32 -90 35.64 -90 37 C-90.66 37 -91.32 37 -92 37 C-92 38.32 -92 39.64 -92 41 C-92.66 41 -93.32 41 -94 41 C-94 43.64 -94 46.28 -94 49 C-94.66 49 -95.32 49 -96 49 C-95.98839844 49.85464844 -95.97679687 50.70929688 -95.96484375 51.58984375 C-95.95582031 52.69457031 -95.94679688 53.79929688 -95.9375 54.9375 C-95.92589844 56.03964844 -95.91429687 57.14179688 -95.90234375 58.27734375 C-96 61 -96 61 -97 62 C-97.20888708 63.99603206 -97.36775477 65.99742941 -97.5 68 C-97.88888889 73.88888889 -97.88888889 73.88888889 -99 75 C-99.23192865 76.51469448 -99.41215238 78.03754562 -99.5625 79.5625 C-99.64628906 80.38878906 -99.73007812 81.21507812 -99.81640625 82.06640625 C-99.87699219 82.70449219 -99.93757812 83.34257812 -100 84 C-100.66 84 -101.32 84 -102 84 C-101.95875 85.2375 -101.9175 86.475 -101.875 87.75 C-101.86341709 91.01637962 -102.1431298 93.2146947 -104 96 C-104.66 96 -105.32 96 -106 96 C-106 97.32 -106 98.64 -106 100 C-106.66 100 -107.32 100 -108 100 C-108.103125 100.53625 -108.20625 101.0725 -108.3125 101.625 C-109.18092697 104.62502044 -110.55620296 107.2379535 -112 110 C-112.66 110 -113.32 110 -114 110 C-114 110.99 -114 111.98 -114 113 C-114.66 113 -115.32 113 -116 113 C-116 113.99 -116 114.98 -116 116 C-116.66 116 -117.32 116 -118 116 C-118 116.66 -118 117.32 -118 118 C-118.66 118 -119.32 118 -120 118 C-120.66 119.65 -121.32 121.3 -122 123 C-122.66 123 -123.32 123 -124 123 C-124 123.66 -124 124.32 -124 125 C-124.66 125 -125.32 125 -126 125 C-126 125.66 -126 126.32 -126 127 C-127.32 127.33 -128.64 127.66 -130 128 C-130 128.66 -130 129.32 -130 130 C-131.32 130.33 -132.64 130.66 -134 131 C-134 131.66 -134 132.32 -134 133 C-136.97 133.99 -136.97 133.99 -140 135 C-140 135.66 -140 136.32 -140 137 C-163.82888218 149.30885854 -163.82888218 149.30885854 -176.37646484 153.85571289 C-180.18298479 155.23911568 -183.69925885 156.6244666 -187 159 C-187.88658466 161.59122743 -187.88658466 161.59122743 -188 164 C-188.66 164 -189.32 164 -190 164 C-190 164.99 -190 165.98 -190 167 C-190.66 167 -191.32 167 -192 167 C-192 168.65 -192 170.3 -192 172 C-192.66 172 -193.32 172 -194 172 C-194 173.65 -194 175.3 -194 177 C-194.66 177 -195.32 177 -196 177 C-196 178.65 -196 180.3 -196 182 C-196.66 182 -197.32 182 -198 182 C-198 183.32 -198 184.64 -198 186 C-198.66 186 -199.32 186 -200 186 C-199.96132812 186.72058594 -199.92265625 187.44117188 -199.8828125 188.18359375 C-200.00983774 191.23643371 -200.6883794 193.26051633 -201.875 196.0625 C-202.22304687 196.89910156 -202.57109375 197.73570312 -202.9296875 198.59765625 C-203.89573079 200.76596509 -204.91717604 202.88800552 -206 205 C-206.66 205 -207.32 205 -208 205 C-208.061875 205.76957031 -208.12375 206.53914062 -208.1875 207.33203125 C-209 210 -209 210 -211.25 211.51171875 C-212.1575 211.89972656 -213.065 212.28773438 -214 212.6875 C-217.71960116 214.0620125 -217.71960116 214.0620125 -220 217 C-220.66 217 -221.32 217 -222 217 C-222 217.66 -222 218.32 -222 219 C-222.66 219 -223.32 219 -224 219 C-224 219.99 -224 220.98 -224 222 C-224.66 222 -225.32 222 -226 222 C-226.66 223.65 -227.32 225.3 -228 227 C-228.66 227 -229.32 227 -230 227 C-230 227.66 -230 228.32 -230 229 C-230.66 229 -231.32 229 -232 229 C-232 229.66 -232 230.32 -232 231 C-232.66 231 -233.32 231 -234 231 C-234 231.66 -234 232.32 -234 233 C-237.427865 234.7139325 -241.28316193 234.01163318 -245.0546875 233.9375 C-247.59000286 233.9912998 -249.59403346 234.25612629 -252 235 C-252 235.66 -252 236.32 -252 237 C-252.66 237 -253.32 237 -254 237 C-254 237.66 -254 238.32 -254 239 C-255.32 239.33 -256.64 239.66 -258 240 C-258 240.66 -258 241.32 -258 242 C-262.14827274 244.76551516 -264.88282796 245.11512979 -269.875 244.875 C-275.91550055 244.69468655 -279.42616471 246.12983168 -284 250 C-284.99 250.99 -284.99 250.99 -286 252 C-287.98821313 252.39764263 -289.98944339 252.73775349 -292 253 C-292.33 252.34 -292.66 251.68 -293 251 C-291.93072266 250.36384766 -291.93072266 250.36384766 -290.83984375 249.71484375 C-284.77926651 246.00345392 -279.78749214 242.23195427 -275 237 C-273.7934375 235.824375 -273.7934375 235.824375 -272.5625 234.625 C-271.716875 233.75875 -270.87125 232.8925 -270 232 C-269.42765625 231.42378906 -268.8553125 230.84757813 -268.265625 230.25390625 C-263.25246244 224.94998026 -259.48993203 219.21499469 -255.71435547 213.01318359 C-252.69472636 208.06154783 -249.46375183 203.35669672 -245.9921875 198.70703125 C-244.16983919 196.23078149 -242.42356982 193.71426623 -240.69873047 191.16943359 C-238.83018159 188.42402379 -236.91619845 185.71241195 -235 183 C-234.31421875 182.01386719 -233.6284375 181.02773438 -232.921875 180.01171875 C-221.45033784 164.6526051 -200.03450401 157.97179603 -182.4375 152 C-164.76137071 146.00104625 -146.33001488 138.11513362 -132 126 C-131.04996094 125.26136719 -130.09992188 124.52273437 -129.12109375 123.76171875 C-125.51394439 120.74716035 -122.78219871 117.20572612 -120 113.4375 C-119.475271 112.727146 -118.95054199 112.01679199 -118.40991211 111.28491211 C-106.64417288 95.04047133 -102.83662001 77.74913575 -100.51904297 58.1484375 C-98.76310885 44.03703975 -94.89241765 30.92944825 -83.46875 21.6796875 C-61.5151376 6.74289426 -26.37853186 0 0 0 Z " fill="#1528CB" transform="translate(407,123)"/>
<path d="M0 0 C0 0.99 0 1.98 0 3 C-0.8765625 3.09796875 -1.753125 3.1959375 -2.65625 3.296875 C-7.11055423 3.82197591 -11.5558145 4.39563733 -16 5 C-17.36560059 5.1853833 -17.36560059 5.1853833 -18.75878906 5.37451172 C-33.76176448 7.47737525 -47.71316265 11.00018394 -62 16 C-63.4473451 16.48737773 -64.89522304 16.97317739 -66.34375 17.45703125 C-71.46902603 19.20957915 -75.70617959 20.67944555 -80 24 C-80.66 24 -81.32 24 -82 24 C-82 24.66 -82 25.32 -82 26 C-82.66 26 -83.32 26 -84 26 C-84.28875 26.598125 -84.5775 27.19625 -84.875 27.8125 C-86 30 -86 30 -88 33 C-88.66 33 -89.32 33 -90 33 C-90 34.32 -90 35.64 -90 37 C-90.66 37 -91.32 37 -92 37 C-92 38.32 -92 39.64 -92 41 C-92.66 41 -93.32 41 -94 41 C-94 43.64 -94 46.28 -94 49 C-94.66 49 -95.32 49 -96 49 C-95.98839844 49.85464844 -95.97679687 50.70929688 -95.96484375 51.58984375 C-95.95582031 52.69457031 -95.94679688 53.79929688 -95.9375 54.9375 C-95.92589844 56.03964844 -95.91429687 57.14179688 -95.90234375 58.27734375 C-96 61 -96 61 -97 62 C-97.20888708 63.99603206 -97.36775477 65.99742941 -97.5 68 C-97.88888889 73.88888889 -97.88888889 73.88888889 -99 75 C-99.23192865 76.51469448 -99.41215238 78.03754562 -99.5625 79.5625 C-99.64628906 80.38878906 -99.73007812 81.21507812 -99.81640625 82.06640625 C-99.87699219 82.70449219 -99.93757812 83.34257812 -100 84 C-100.66 84 -101.32 84 -102 84 C-101.95875 85.2375 -101.9175 86.475 -101.875 87.75 C-101.86341709 91.01637962 -102.1431298 93.2146947 -104 96 C-104.66 96 -105.32 96 -106 96 C-106 97.32 -106 98.64 -106 100 C-106.66 100 -107.32 100 -108 100 C-108.103125 100.53625 -108.20625 101.0725 -108.3125 101.625 C-109.18092697 104.62502044 -110.55620296 107.2379535 -112 110 C-112.66 110 -113.32 110 -114 110 C-114 110.99 -114 111.98 -114 113 C-114.66 113 -115.32 113 -116 113 C-116 113.99 -116 114.98 -116 116 C-116.66 116 -117.32 116 -118 116 C-118 116.66 -118 117.32 -118 118 C-118.66 118 -119.32 118 -120 118 C-120.66 119.65 -121.32 121.3 -122 123 C-122.66 123 -123.32 123 -124 123 C-124 123.66 -124 124.32 -124 125 C-124.66 125 -125.32 125 -126 125 C-126 125.66 -126 126.32 -126 127 C-127.32 127.33 -128.64 127.66 -130 128 C-130 128.66 -130 129.32 -130 130 C-131.32 130.33 -132.64 130.66 -134 131 C-134 131.66 -134 132.32 -134 133 C-136.97 133.99 -136.97 133.99 -140 135 C-140 135.66 -140 136.32 -140 137 C-163.82888218 149.30885854 -163.82888218 149.30885854 -176.37646484 153.85571289 C-180.18298479 155.23911568 -183.69925885 156.6244666 -187 159 C-187.88658466 161.59122743 -187.88658466 161.59122743 -188 164 C-188.66 164 -189.32 164 -190 164 C-190 164.99 -190 165.98 -190 167 C-190.66 167 -191.32 167 -192 167 C-192 168.65 -192 170.3 -192 172 C-192.66 172 -193.32 172 -194 172 C-194 173.65 -194 175.3 -194 177 C-194.66 177 -195.32 177 -196 177 C-196 178.65 -196 180.3 -196 182 C-196.66 182 -197.32 182 -198 182 C-198 183.32 -198 184.64 -198 186 C-198.66 186 -199.32 186 -200 186 C-199.96132812 186.72058594 -199.92265625 187.44117188 -199.8828125 188.18359375 C-200.00983774 191.23643371 -200.6883794 193.26051633 -201.875 196.0625 C-202.22304687 196.89910156 -202.57109375 197.73570312 -202.9296875 198.59765625 C-203.89573079 200.76596509 -204.91717604 202.88800552 -206 205 C-206.66 205 -207.32 205 -208 205 C-208.061875 205.76957031 -208.12375 206.53914062 -208.1875 207.33203125 C-209 210 -209 210 -211.25 211.51171875 C-212.1575 211.89972656 -213.065 212.28773438 -214 212.6875 C-217.71960116 214.0620125 -217.71960116 214.0620125 -220 217 C-220.66 217 -221.32 217 -222 217 C-222 217.66 -222 218.32 -222 219 C-222.66 219 -223.32 219 -224 219 C-224 219.99 -224 220.98 -224 222 C-224.66 222 -225.32 222 -226 222 C-226.66 223.65 -227.32 225.3 -228 227 C-228.66 227 -229.32 227 -230 227 C-230 227.66 -230 228.32 -230 229 C-230.66 229 -231.32 229 -232 229 C-232 229.66 -232 230.32 -232 231 C-232.66 231 -233.32 231 -234 231 C-234 231.66 -234 232.32 -234 233 C-237.427865 234.7139325 -241.28316193 234.01163318 -245.0546875 233.9375 C-247.59000286 233.9912998 -249.59403346 234.25612629 -252 235 C-252 235.66 -252 236.32 -252 237 C-252.66 237 -253.32 237 -254 237 C-254 237.66 -254 238.32 -254 239 C-255.32 239.33 -256.64 239.66 -258 240 C-258 240.66 -258 241.32 -258 242 C-262.14827274 244.76551516 -264.88282796 245.11512979 -269.875 244.875 C-275.91550055 244.69468655 -279.42616471 246.12983168 -284 250 C-284.99 250.99 -284.99 250.99 -286 252 C-287.98821313 252.39764263 -289.98944339 252.73775349 -292 253 C-292.33 252.34 -292.66 251.68 -293 251 C-291.93072266 250.36384766 -291.93072266 250.36384766 -290.83984375 249.71484375 C-284.77926651 246.00345392 -279.78749214 242.23195427 -275 237 C-273.7934375 235.824375 -273.7934375 235.824375 -272.5625 234.625 C-269.55091126 231.53995788 -266.70965094 228.32656703 -263.8671875 225.0859375 C-262.29408631 223.32853994 -260.6879715 221.64603432 -259 220 C-260.60693153 225.08050068 -262.57646264 229.96184129 -264.625 234.875 C-265.11226562 236.050625 -265.11226562 236.050625 -265.609375 237.25 C-266.40440762 239.16743162 -267.20194851 241.0838229 -268 243 C-251.32910933 233.758528 -241.82551471 218.41191703 -233 202 C-232.67 202.66 -232.34 203.32 -232 204 C-232.68136492 205.9215686 -233.4477142 207.81319439 -234.25 209.6875 C-237.18829414 217.00458902 -238.67877854 224.23379581 -240 232 C-239.67 231.67 -239.34 231.34 -239 231 C-237.515 229.8553125 -237.515 229.8553125 -236 228.6875 C-226.64344419 220.61555329 -221.07634371 210.03411045 -216 199 C-215.67 199 -215.34 199 -215 199 C-214.505 204.445 -214.505 204.445 -214 210 C-209.70925764 201.84998658 -205.77855523 193.64238184 -202.32202148 185.1003418 C-200.64899254 180.98214164 -198.90459527 176.89549116 -197.16015625 172.80712891 C-196.13316528 170.32220841 -195.21458778 167.82486511 -194.3125 165.29296875 C-191.43476649 158.09155517 -188.21860343 154.28662391 -181.09765625 150.93359375 C-175.26883346 148.47994647 -169.32530351 146.37407433 -163.36523438 144.26464844 C-152.09226024 140.028287 -141.0392513 133.99122217 -132 126 C-131.05769531 125.26523438 -130.11539063 124.53046875 -129.14453125 123.7734375 C-125.52467263 120.75622909 -122.78895103 117.2148715 -120 113.4375 C-119.475271 112.727146 -118.95054199 112.01679199 -118.40991211 111.28491211 C-106.64417288 95.04047133 -102.83662001 77.74913575 -100.51904297 58.1484375 C-98.76310885 44.03703975 -94.89241765 30.92944825 -83.46875 21.6796875 C-61.5151376 6.74289426 -26.37853186 0 0 0 Z " fill="#03193C" transform="translate(407,123)"/>
<path d="M0 0 C5.50743045 0.06055341 10.7509785 0.79968909 16.16015625 1.7890625 C17.13670166 1.9629248 18.11324707 2.13678711 19.11938477 2.31591797 C30.72239934 4.45164527 42.16090511 7.28419822 53.59765625 10.1640625 C55.17181655 10.55752561 56.74602823 10.95078323 58.3203125 11.34375 C59.40183594 11.61445313 60.48335938 11.88515625 61.59765625 12.1640625 C61.59765625 12.8240625 61.59765625 13.4840625 61.59765625 14.1640625 C60.93765625 14.1640625 60.27765625 14.1640625 59.59765625 14.1640625 C59.59765625 15.4840625 59.59765625 16.8040625 59.59765625 18.1640625 C52.07427463 18.48050337 45.36436811 17.29866671 38.03515625 15.6640625 C36.3790332 15.30634766 36.3790332 15.30634766 34.68945312 14.94140625 C31.99028167 14.35717001 29.29324501 13.76457285 26.59765625 13.1640625 C26.59765625 14.1540625 26.59765625 15.1440625 26.59765625 16.1640625 C25.27765625 16.4940625 23.95765625 16.8240625 22.59765625 17.1640625 C22.26765625 18.8140625 21.93765625 20.4640625 21.59765625 22.1640625 C23.24765625 22.4940625 24.89765625 22.8240625 26.59765625 23.1640625 C24.32215692 23.94437753 23.0496276 24.3188342 20.73828125 23.52734375 C20.114375 23.18058594 19.49046875 22.83382812 18.84765625 22.4765625 C15.82645652 20.81084112 15.82645652 20.81084112 12.6875 19.390625 C7.85508596 17.38621507 4.35384196 14.31227273 0.66015625 10.6640625 C0.17506592 10.1889624 -0.31002441 9.7138623 -0.80981445 9.22436523 C-3.25307266 6.72014532 -5.14943218 4.75377504 -5.40234375 1.1640625 C-3.81451474 -0.42376651 -2.19802537 0.00819435 0 0 Z " fill="#0A5FEE" transform="translate(143.40234375,157.8359375)"/>
<path d="M0 0 C0.33 0.66 0.66 1.32 1 2 C-0.24089584 4.84765777 -1.54770351 7.60064113 -2.9375 10.375 C-6.34514535 17.3325821 -9.40270656 24.33379994 -12.1875 31.5625 C-14.83637151 38.38793376 -17.52787819 45.11970142 -22 51 C-22.33 51 -22.66 51 -23 51 C-23.46261339 42.75862818 -22.49337441 35.12523639 -20.51708984 27.11669922 C-20.15724452 25.643678 -19.81791098 24.16555727 -19.49462891 22.68408203 C-16.21863753 8.0656028 -16.21863753 8.0656028 -10.49609375 4.3046875 C-7.1179089 2.47181052 -3.66106175 1.15348521 0 0 Z " fill="#173FF4" transform="translate(215,283)"/>
<path d="M0 0 C2.7795961 0.8348275 5.32364037 1.85298873 8 3 C8 3.99 8 4.98 8 6 C2.17495763 9.02039234 -2.39749342 10.99037599 -9 10 C-12 7.5 -12 7.5 -14 5 C-9.58101584 0.58101584 -6.39928386 -1.14187965 0 0 Z " fill="#010F25" transform="translate(307,128)"/>
<path d="M0 0 C5.20572372 0.02502752 8.48267174 1.72059992 12.9375 4.3125 C12.9375 4.6425 12.9375 4.9725 12.9375 5.3125 C11.844375 5.27125 10.75125 5.23 9.625 5.1875 C5.84857771 4.99175334 5.84857771 4.99175334 2.9375 7.3125 C3.2675 7.6425 3.5975 7.9725 3.9375 8.3125 C3.97813832 9.97867115 3.980221 11.64638095 3.9375 13.3125 C2.2875 13.6425 0.6375 13.9725 -1.0625 14.3125 C-1.145 13.735 -1.2275 13.1575 -1.3125 12.5625 C-1.92196366 10.12413978 -1.92196366 10.12413978 -4.1875 8.375 C-4.80625 7.694375 -5.425 7.01375 -6.0625 6.3125 C-5.71244678 1.29507048 -4.87196656 0.15877764 0 0 Z " fill="#104596" transform="translate(255.0625,316.6875)"/>
<path d="M0 0 C1.65 1.65 3.3 3.3 5 5 C3.515 7.475 3.515 7.475 2 10 C1.01 9.67 0.02 9.34 -1 9 C-1.09765625 2.84765625 -1.09765625 2.84765625 -1 1 C-0.67 0.67 -0.34 0.34 0 0 Z " fill="#040D48" transform="translate(279,336)"/>
<path d="M0 0 C1.8253125 0.680625 1.8253125 0.680625 3.6875 1.375 C9.65752708 3.38726152 15.77257489 4.18186842 22 5 C18.8766607 7.0822262 17.69388468 7.83939632 14 8 C9.06764842 6.33196837 4.308348 3.91855832 0 1 C0 0.67 0 0.34 0 0 Z " fill="#001924" transform="translate(178,199)"/>
<path d="M0 0 C1.65 0.33 3.3 0.66 5 1 C5 1.99 5 2.98 5 4 C3.1875 5.0625 3.1875 5.0625 1 6 C0.01 5.67 -0.98 5.34 -2 5 C-0.68 4.34 0.64 3.68 2 3 C1.34 2.01 0.68 1.02 0 0 Z " fill="#030618" transform="translate(310,130)"/>
<path d="M0 0 C1.98 0.495 1.98 0.495 4 1 C3.34 2.32 2.68 3.64 2 5 C1.01 4.67 0.02 4.34 -1 4 C-0.67 2.68 -0.34 1.36 0 0 Z " fill="#0EB5F0" transform="translate(300,130)"/>
<path d="M0 0 C3.7952131 1.49097658 5.61042731 3.75700849 8 7 C7.67 7.66 7.34 8.32 7 9 C5.83037314 7.69013727 4.66437056 6.3770374 3.5 5.0625 C2.8503125 4.33160156 2.200625 3.60070312 1.53125 2.84765625 C0 1 0 1 0 0 Z " fill="#00131D" transform="translate(237,153)"/>
<path d="M0 0 C2.66666667 1.33333333 5.33333333 2.66666667 8 4 C7.67 4.66 7.34 5.32 7 6 C4.69 5.34 2.38 4.68 0 4 C0 2.68 0 1.36 0 0 Z " fill="#004F78" transform="translate(152,80)"/>
</svg>
